<mxfile host="app.diagrams.net" modified="2023-10-02T07:06:10.675Z" agent="Mozilla/5.0 (X11; Linux x86_64; rv:109.0) Gecko/20100101 Firefox/118.0" etag="yXycOLRG76wN4596A7zo" version="22.0.0" type="device">
  <diagram name="Page-1" id="JrPF1_S0kgiXp1jEwI1s">
    <mxGraphModel dx="1434" dy="759" grid="1" gridSize="10" guides="1" tooltips="1" connect="1" arrows="1" fold="1" page="1" pageScale="1" pageWidth="850" pageHeight="1100" math="0" shadow="0">
      <root>
        <mxCell id="0" />
        <mxCell id="1" parent="0" />
        <mxCell id="5TKDiQb323LrV6Z4kmIQ-6" value="View" style="html=1;whiteSpace=wrap;fillColor=#ffe6cc;strokeColor=#d79b00;" vertex="1" parent="1">
          <mxGeometry x="40" y="40" width="110" height="50" as="geometry" />
        </mxCell>
        <mxCell id="5TKDiQb323LrV6Z4kmIQ-7" value="" style="endArrow=open;endFill=1;endSize=12;html=1;rounded=0;fontColor=#FFCE9F;" edge="1" parent="1">
          <mxGeometry width="160" relative="1" as="geometry">
            <mxPoint x="150" y="64.5" as="sourcePoint" />
            <mxPoint x="310" y="64.5" as="targetPoint" />
          </mxGeometry>
        </mxCell>
        <mxCell id="5TKDiQb323LrV6Z4kmIQ-9" value="UpdateAction" style="edgeLabel;html=1;align=center;verticalAlign=middle;resizable=0;points=[];" vertex="1" connectable="0" parent="5TKDiQb323LrV6Z4kmIQ-7">
          <mxGeometry x="-0.2125" y="1" relative="1" as="geometry">
            <mxPoint x="7" y="2" as="offset" />
          </mxGeometry>
        </mxCell>
        <mxCell id="5TKDiQb323LrV6Z4kmIQ-8" value="Side-Effect" style="html=1;whiteSpace=wrap;fillColor=#ffe6cc;strokeColor=#d79b00;" vertex="1" parent="1">
          <mxGeometry x="310" y="40" width="110" height="50" as="geometry" />
        </mxCell>
        <mxCell id="5TKDiQb323LrV6Z4kmIQ-10" value="Controller" style="html=1;whiteSpace=wrap;fillColor=#ffe6cc;strokeColor=#d79b00;" vertex="1" parent="1">
          <mxGeometry x="688.5" y="40" width="110" height="50" as="geometry" />
        </mxCell>
        <mxCell id="5TKDiQb323LrV6Z4kmIQ-11" value="" style="endArrow=open;endFill=1;endSize=12;html=1;rounded=0;entryX=0;entryY=0.5;entryDx=0;entryDy=0;" edge="1" parent="1" target="5TKDiQb323LrV6Z4kmIQ-10">
          <mxGeometry width="160" relative="1" as="geometry">
            <mxPoint x="420" y="64.5" as="sourcePoint" />
            <mxPoint x="580" y="64.5" as="targetPoint" />
          </mxGeometry>
        </mxCell>
        <mxCell id="5TKDiQb323LrV6Z4kmIQ-12" value="HTTP-Post" style="edgeLabel;html=1;align=center;verticalAlign=middle;resizable=0;points=[];" vertex="1" connectable="0" parent="5TKDiQb323LrV6Z4kmIQ-11">
          <mxGeometry x="-0.2125" y="1" relative="1" as="geometry">
            <mxPoint x="7" y="2" as="offset" />
          </mxGeometry>
        </mxCell>
        <mxCell id="5TKDiQb323LrV6Z4kmIQ-13" value="Validation/&lt;br&gt;DB-Updates" style="html=1;whiteSpace=wrap;fillColor=#ffe6cc;strokeColor=#d79b00;" vertex="1" parent="1">
          <mxGeometry x="691.5" y="150" width="110" height="50" as="geometry" />
        </mxCell>
        <mxCell id="5TKDiQb323LrV6Z4kmIQ-14" value="" style="endArrow=open;endFill=1;endSize=12;html=1;rounded=0;exitX=0.5;exitY=1;exitDx=0;exitDy=0;" edge="1" parent="1" source="5TKDiQb323LrV6Z4kmIQ-10" target="5TKDiQb323LrV6Z4kmIQ-13">
          <mxGeometry width="160" relative="1" as="geometry">
            <mxPoint x="448.5" y="400" as="sourcePoint" />
            <mxPoint x="608.5" y="400" as="targetPoint" />
          </mxGeometry>
        </mxCell>
        <mxCell id="5TKDiQb323LrV6Z4kmIQ-15" value="Notification" style="html=1;whiteSpace=wrap;fillColor=#ffe6cc;strokeColor=#d79b00;" vertex="1" parent="1">
          <mxGeometry x="691.5" y="250" width="110" height="50" as="geometry" />
        </mxCell>
        <mxCell id="5TKDiQb323LrV6Z4kmIQ-16" value="" style="endArrow=open;endFill=1;endSize=12;html=1;rounded=0;exitX=0.5;exitY=1;exitDx=0;exitDy=0;entryX=0.5;entryY=0;entryDx=0;entryDy=0;" edge="1" parent="1" source="5TKDiQb323LrV6Z4kmIQ-13" target="5TKDiQb323LrV6Z4kmIQ-15">
          <mxGeometry width="160" relative="1" as="geometry">
            <mxPoint x="753.5" y="100" as="sourcePoint" />
            <mxPoint x="755.5" y="160" as="targetPoint" />
          </mxGeometry>
        </mxCell>
        <mxCell id="5TKDiQb323LrV6Z4kmIQ-17" value="Notification" style="html=1;whiteSpace=wrap;fillColor=#ffe6cc;strokeColor=#d79b00;" vertex="1" parent="1">
          <mxGeometry x="315" y="250" width="110" height="50" as="geometry" />
        </mxCell>
        <mxCell id="5TKDiQb323LrV6Z4kmIQ-18" value="" style="endArrow=open;endFill=1;endSize=12;html=1;rounded=0;exitX=0;exitY=0.5;exitDx=0;exitDy=0;entryX=1;entryY=0.5;entryDx=0;entryDy=0;" edge="1" parent="1" source="5TKDiQb323LrV6Z4kmIQ-15" target="5TKDiQb323LrV6Z4kmIQ-17">
          <mxGeometry width="160" relative="1" as="geometry">
            <mxPoint x="430" y="74.5" as="sourcePoint" />
            <mxPoint x="590" y="74.5" as="targetPoint" />
          </mxGeometry>
        </mxCell>
        <mxCell id="5TKDiQb323LrV6Z4kmIQ-19" value="WebSocket-Message" style="edgeLabel;html=1;align=center;verticalAlign=middle;resizable=0;points=[];" vertex="1" connectable="0" parent="5TKDiQb323LrV6Z4kmIQ-18">
          <mxGeometry x="-0.2125" y="1" relative="1" as="geometry">
            <mxPoint x="-11" y="-1" as="offset" />
          </mxGeometry>
        </mxCell>
        <mxCell id="5TKDiQb323LrV6Z4kmIQ-21" value="Reducer" style="html=1;whiteSpace=wrap;fillColor=#ffe6cc;strokeColor=#d79b00;" vertex="1" parent="1">
          <mxGeometry x="40" y="250" width="110" height="50" as="geometry" />
        </mxCell>
        <mxCell id="5TKDiQb323LrV6Z4kmIQ-22" value="" style="endArrow=open;endFill=1;endSize=12;html=1;rounded=0;exitX=0;exitY=0.5;exitDx=0;exitDy=0;entryX=1;entryY=0.5;entryDx=0;entryDy=0;" edge="1" parent="1" source="5TKDiQb323LrV6Z4kmIQ-17" target="5TKDiQb323LrV6Z4kmIQ-21">
          <mxGeometry width="160" relative="1" as="geometry">
            <mxPoint x="260" y="200" as="sourcePoint" />
            <mxPoint x="420" y="200" as="targetPoint" />
          </mxGeometry>
        </mxCell>
        <mxCell id="5TKDiQb323LrV6Z4kmIQ-23" value="UpdateSuccessAction" style="edgeLabel;html=1;align=center;verticalAlign=middle;resizable=0;points=[];" vertex="1" connectable="0" parent="5TKDiQb323LrV6Z4kmIQ-22">
          <mxGeometry x="-0.2125" y="1" relative="1" as="geometry">
            <mxPoint x="-10" y="-1" as="offset" />
          </mxGeometry>
        </mxCell>
        <mxCell id="5TKDiQb323LrV6Z4kmIQ-24" value="State" style="html=1;whiteSpace=wrap;" vertex="1" parent="1">
          <mxGeometry x="40" y="150" width="110" height="50" as="geometry" />
        </mxCell>
        <mxCell id="5TKDiQb323LrV6Z4kmIQ-26" value="" style="endArrow=open;endFill=1;endSize=12;html=1;rounded=0;exitX=0.5;exitY=0;exitDx=0;exitDy=0;entryX=0.5;entryY=1;entryDx=0;entryDy=0;" edge="1" parent="1" source="5TKDiQb323LrV6Z4kmIQ-21" target="5TKDiQb323LrV6Z4kmIQ-24">
          <mxGeometry width="160" relative="1" as="geometry">
            <mxPoint x="325" y="285" as="sourcePoint" />
            <mxPoint x="160" y="285" as="targetPoint" />
          </mxGeometry>
        </mxCell>
        <mxCell id="5TKDiQb323LrV6Z4kmIQ-27" value="Update" style="edgeLabel;html=1;align=center;verticalAlign=middle;resizable=0;points=[];" vertex="1" connectable="0" parent="5TKDiQb323LrV6Z4kmIQ-26">
          <mxGeometry x="-0.2125" y="1" relative="1" as="geometry">
            <mxPoint x="1" y="-1" as="offset" />
          </mxGeometry>
        </mxCell>
        <mxCell id="5TKDiQb323LrV6Z4kmIQ-29" value="" style="endArrow=open;endFill=1;endSize=12;html=1;rounded=0;exitX=0.5;exitY=0;exitDx=0;exitDy=0;" edge="1" parent="1" source="5TKDiQb323LrV6Z4kmIQ-24" target="5TKDiQb323LrV6Z4kmIQ-6">
          <mxGeometry width="160" relative="1" as="geometry">
            <mxPoint x="105" y="260" as="sourcePoint" />
            <mxPoint x="105" y="210" as="targetPoint" />
          </mxGeometry>
        </mxCell>
        <mxCell id="5TKDiQb323LrV6Z4kmIQ-30" value="NewState" style="edgeLabel;html=1;align=center;verticalAlign=middle;resizable=0;points=[];" vertex="1" connectable="0" parent="5TKDiQb323LrV6Z4kmIQ-29">
          <mxGeometry x="-0.2125" y="1" relative="1" as="geometry">
            <mxPoint x="1" y="-1" as="offset" />
          </mxGeometry>
        </mxCell>
        <mxCell id="5TKDiQb323LrV6Z4kmIQ-31" value="View" style="html=1;whiteSpace=wrap;fillColor=#ffe6cc;strokeColor=#d79b00;" vertex="1" parent="1">
          <mxGeometry x="40" y="400" width="110" height="50" as="geometry" />
        </mxCell>
        <mxCell id="5TKDiQb323LrV6Z4kmIQ-35" value="Controller" style="html=1;whiteSpace=wrap;" vertex="1" parent="1">
          <mxGeometry x="693" y="400" width="110" height="50" as="geometry" />
        </mxCell>
        <mxCell id="5TKDiQb323LrV6Z4kmIQ-36" value="" style="endArrow=open;endFill=1;endSize=12;html=1;rounded=0;exitX=1;exitY=0.5;exitDx=0;exitDy=0;entryX=0;entryY=0.5;entryDx=0;entryDy=0;" edge="1" parent="1" source="5TKDiQb323LrV6Z4kmIQ-31" target="5TKDiQb323LrV6Z4kmIQ-35">
          <mxGeometry width="160" relative="1" as="geometry">
            <mxPoint x="420" y="424.5" as="sourcePoint" />
            <mxPoint x="580" y="424.5" as="targetPoint" />
          </mxGeometry>
        </mxCell>
        <mxCell id="5TKDiQb323LrV6Z4kmIQ-37" value="HTTP-Post { UpdateAction }" style="edgeLabel;html=1;align=center;verticalAlign=middle;resizable=0;points=[];" vertex="1" connectable="0" parent="5TKDiQb323LrV6Z4kmIQ-36">
          <mxGeometry x="-0.2125" y="1" relative="1" as="geometry">
            <mxPoint x="33" y="1" as="offset" />
          </mxGeometry>
        </mxCell>
        <mxCell id="5TKDiQb323LrV6Z4kmIQ-38" value="Validation/&lt;br&gt;DB-Updates" style="html=1;whiteSpace=wrap;fillColor=#ffe6cc;strokeColor=#d79b00;" vertex="1" parent="1">
          <mxGeometry x="696" y="510" width="110" height="50" as="geometry" />
        </mxCell>
        <mxCell id="5TKDiQb323LrV6Z4kmIQ-39" value="" style="endArrow=open;endFill=1;endSize=12;html=1;rounded=0;exitX=0.5;exitY=1;exitDx=0;exitDy=0;" edge="1" parent="1" source="5TKDiQb323LrV6Z4kmIQ-35" target="5TKDiQb323LrV6Z4kmIQ-38">
          <mxGeometry width="160" relative="1" as="geometry">
            <mxPoint x="453" y="760" as="sourcePoint" />
            <mxPoint x="613" y="760" as="targetPoint" />
          </mxGeometry>
        </mxCell>
        <mxCell id="5TKDiQb323LrV6Z4kmIQ-40" value="Notification" style="html=1;whiteSpace=wrap;" vertex="1" parent="1">
          <mxGeometry x="696" y="610" width="110" height="50" as="geometry" />
        </mxCell>
        <mxCell id="5TKDiQb323LrV6Z4kmIQ-41" value="" style="endArrow=open;endFill=1;endSize=12;html=1;rounded=0;exitX=0.5;exitY=1;exitDx=0;exitDy=0;entryX=0.5;entryY=0;entryDx=0;entryDy=0;" edge="1" parent="1" source="5TKDiQb323LrV6Z4kmIQ-38" target="5TKDiQb323LrV6Z4kmIQ-40">
          <mxGeometry width="160" relative="1" as="geometry">
            <mxPoint x="758" y="460" as="sourcePoint" />
            <mxPoint x="760" y="520" as="targetPoint" />
          </mxGeometry>
        </mxCell>
        <mxCell id="5TKDiQb323LrV6Z4kmIQ-43" value="" style="endArrow=open;endFill=1;endSize=12;html=1;rounded=0;exitX=0;exitY=0.5;exitDx=0;exitDy=0;" edge="1" parent="1" source="5TKDiQb323LrV6Z4kmIQ-40" target="5TKDiQb323LrV6Z4kmIQ-45">
          <mxGeometry width="160" relative="1" as="geometry">
            <mxPoint x="430" y="434.5" as="sourcePoint" />
            <mxPoint x="425" y="635" as="targetPoint" />
          </mxGeometry>
        </mxCell>
        <mxCell id="5TKDiQb323LrV6Z4kmIQ-44" value="WebSocket-Message {UpdateSuccessAction}" style="edgeLabel;html=1;align=center;verticalAlign=middle;resizable=0;points=[];" vertex="1" connectable="0" parent="5TKDiQb323LrV6Z4kmIQ-43">
          <mxGeometry x="-0.2125" y="1" relative="1" as="geometry">
            <mxPoint x="-131" y="-1" as="offset" />
          </mxGeometry>
        </mxCell>
        <mxCell id="5TKDiQb323LrV6Z4kmIQ-45" value="Reducer" style="html=1;whiteSpace=wrap;fillColor=#ffe6cc;strokeColor=#d79b00;" vertex="1" parent="1">
          <mxGeometry x="40" y="610" width="110" height="50" as="geometry" />
        </mxCell>
        <mxCell id="5TKDiQb323LrV6Z4kmIQ-48" value="State" style="html=1;whiteSpace=wrap;" vertex="1" parent="1">
          <mxGeometry x="40" y="510" width="110" height="50" as="geometry" />
        </mxCell>
        <mxCell id="5TKDiQb323LrV6Z4kmIQ-49" value="" style="endArrow=open;endFill=1;endSize=12;html=1;rounded=0;exitX=0.5;exitY=0;exitDx=0;exitDy=0;entryX=0.5;entryY=1;entryDx=0;entryDy=0;" edge="1" parent="1" source="5TKDiQb323LrV6Z4kmIQ-45" target="5TKDiQb323LrV6Z4kmIQ-48">
          <mxGeometry width="160" relative="1" as="geometry">
            <mxPoint x="325" y="645" as="sourcePoint" />
            <mxPoint x="160" y="645" as="targetPoint" />
          </mxGeometry>
        </mxCell>
        <mxCell id="5TKDiQb323LrV6Z4kmIQ-50" value="Update" style="edgeLabel;html=1;align=center;verticalAlign=middle;resizable=0;points=[];" vertex="1" connectable="0" parent="5TKDiQb323LrV6Z4kmIQ-49">
          <mxGeometry x="-0.2125" y="1" relative="1" as="geometry">
            <mxPoint x="1" y="-1" as="offset" />
          </mxGeometry>
        </mxCell>
        <mxCell id="5TKDiQb323LrV6Z4kmIQ-51" value="" style="endArrow=open;endFill=1;endSize=12;html=1;rounded=0;exitX=0.5;exitY=0;exitDx=0;exitDy=0;" edge="1" parent="1" source="5TKDiQb323LrV6Z4kmIQ-48" target="5TKDiQb323LrV6Z4kmIQ-31">
          <mxGeometry width="160" relative="1" as="geometry">
            <mxPoint x="105" y="620" as="sourcePoint" />
            <mxPoint x="105" y="570" as="targetPoint" />
          </mxGeometry>
        </mxCell>
        <mxCell id="5TKDiQb323LrV6Z4kmIQ-52" value="NewState" style="edgeLabel;html=1;align=center;verticalAlign=middle;resizable=0;points=[];" vertex="1" connectable="0" parent="5TKDiQb323LrV6Z4kmIQ-51">
          <mxGeometry x="-0.2125" y="1" relative="1" as="geometry">
            <mxPoint x="1" y="-1" as="offset" />
          </mxGeometry>
        </mxCell>
        <mxCell id="5TKDiQb323LrV6Z4kmIQ-53" value="" style="endArrow=none;dashed=1;html=1;rounded=0;exitX=1;exitY=1;exitDx=0;exitDy=0;" edge="1" parent="1" source="5TKDiQb323LrV6Z4kmIQ-59">
          <mxGeometry width="50" height="50" relative="1" as="geometry">
            <mxPoint x="480" y="310" as="sourcePoint" />
            <mxPoint x="480" y="10" as="targetPoint" />
          </mxGeometry>
        </mxCell>
        <mxCell id="5TKDiQb323LrV6Z4kmIQ-54" value="Client" style="text;html=1;strokeColor=none;fillColor=none;align=center;verticalAlign=middle;whiteSpace=wrap;rounded=0;fontStyle=1" vertex="1" parent="1">
          <mxGeometry x="420" y="10" width="60" height="30" as="geometry" />
        </mxCell>
        <mxCell id="5TKDiQb323LrV6Z4kmIQ-55" value="Server" style="text;html=1;strokeColor=none;fillColor=none;align=center;verticalAlign=middle;whiteSpace=wrap;rounded=0;fontStyle=1" vertex="1" parent="1">
          <mxGeometry x="480" y="10" width="60" height="30" as="geometry" />
        </mxCell>
        <mxCell id="5TKDiQb323LrV6Z4kmIQ-56" value="" style="endArrow=none;dashed=1;html=1;rounded=0;" edge="1" parent="1">
          <mxGeometry width="50" height="50" relative="1" as="geometry">
            <mxPoint x="481.5" y="700" as="sourcePoint" />
            <mxPoint x="481.5" y="380" as="targetPoint" />
          </mxGeometry>
        </mxCell>
        <mxCell id="5TKDiQb323LrV6Z4kmIQ-57" value="Client" style="text;html=1;strokeColor=none;fillColor=none;align=center;verticalAlign=middle;whiteSpace=wrap;rounded=0;fontStyle=1" vertex="1" parent="1">
          <mxGeometry x="421.5" y="380" width="60" height="30" as="geometry" />
        </mxCell>
        <mxCell id="5TKDiQb323LrV6Z4kmIQ-58" value="Server" style="text;html=1;strokeColor=none;fillColor=none;align=center;verticalAlign=middle;whiteSpace=wrap;rounded=0;fontStyle=1" vertex="1" parent="1">
          <mxGeometry x="481.5" y="380" width="60" height="30" as="geometry" />
        </mxCell>
        <mxCell id="5TKDiQb323LrV6Z4kmIQ-59" value="Clients" style="text;html=1;strokeColor=none;fillColor=none;align=center;verticalAlign=middle;whiteSpace=wrap;rounded=0;fontStyle=1" vertex="1" parent="1">
          <mxGeometry x="420" y="300" width="60" height="30" as="geometry" />
        </mxCell>
        <mxCell id="5TKDiQb323LrV6Z4kmIQ-60" value="Clients" style="text;html=1;strokeColor=none;fillColor=none;align=center;verticalAlign=middle;whiteSpace=wrap;rounded=0;fontStyle=1" vertex="1" parent="1">
          <mxGeometry x="420" y="660" width="60" height="30" as="geometry" />
        </mxCell>
      </root>
    </mxGraphModel>
  </diagram>
</mxfile>
